P2
40 40
255
0 0 0 0 0 0 0 0 0 0 0 0 0 0 0 0 0 0 0 0 0 0 0 0 0 0 0 0 0 0 0 0 0 0 0 0 0 0 0 0 
0 0 0 0 0 0 0 0 0 0 0 0 0 0 0 0 0 0 0 0 0 0 0 0 0 0 0 0 0 0 0 0 0 0 0 0 0 0 0 0 
0 0 0 0 0 0 0 0 0 0 0 0 0 0 0 0 0 0 0 0 0 0 0 0 0 0 0 0 0 0 0 0 0 0 0 0 0 0 0 0 
0 0 0 0 0 0 0 0 0 0 0 0 0 0 0 0 0 0 0 0 0 0 0 0 0 0 0 0 0 0 0 0 0 0 0 0 0 0 0 0 
0 0 0 0 0 0 0 0 0 0 0 0 0 0 0 0 0 0 0 0 0 0 0 0 0 0 0 0 0 0 0 0 0 0 0 0 0 0 0 0 
0 0 0 0 0 0 0 0 117 201 247 247 201 117 0 0 0 0 0 0 0 0 0 0 0 0 173 227 251 251 227 173 0 0 0 0 0 0 0 0 
0 0 0 0 0 0 0 166 255 255 255 255 255 255 166 0 0 0 0 0 0 0 0 0 53 206 255 255 255 255 255 255 206 53 0 0 0 0 0 0 
0 0 0 0 0 0 132 255 255 255 255 255 255 255 255 132 0 0 0 0 0 0 0 0 185 255 255 255 255 255 255 255 255 185 0 0 0 0 0 0 
0 0 0 0 0 0 219 255 255 255 255 255 255 255 255 219 0 0 0 0 0 0 0 0 236 255 255 255 255 255 255 255 255 236 0 0 0 0 0 0 
0 0 0 0 0 0 254 255 255 255 255 255 255 255 255 254 0 0 0 0 0 0 0 0 255 255 255 255 255 255 255 255 255 255 0 0 0 0 0 0 
0 0 0 0 0 0 219 255 255 255 255 255 255 255 255 219 0 0 0 0 0 0 0 0 236 255 255 255 255 255 255 255 255 236 0 0 0 0 0 0 
0 0 0 0 0 0 132 255 255 255 255 255 255 255 255 132 0 0 0 0 0 0 0 0 185 255 255 255 255 255 255 255 255 185 0 0 0 0 0 0 
0 0 0 0 0 0 0 166 255 255 255 255 255 255 166 0 0 0 0 0 0 0 0 0 53 206 255 255 255 255 255 255 206 53 0 0 0 0 0 0 
0 0 0 0 0 0 0 0 117 201 247 247 201 117 0 0 0 0 0 0 0 0 0 0 0 0 173 227 251 251 227 173 0 0 0 0 0 0 0 0 
0 0 0 0 0 0 0 0 0 0 0 0 0 0 0 0 0 0 0 0 0 0 0 0 0 0 0 0 0 0 0 0 0 0 0 0 0 0 0 0 
0 0 0 0 0 0 0 0 0 0 0 0 0 0 0 0 0 0 0 0 0 0 0 0 0 0 0 0 0 0 0 0 0 0 0 0 0 0 0 0 
0 0 0 0 0 0 0 0 0 0 0 0 0 0 0 0 0 0 0 0 0 0 0 0 0 0 0 0 0 0 0 0 0 0 0 0 0 0 0 0 
0 0 0 0 0 0 0 0 0 0 0 0 0 0 0 0 0 0 0 0 0 0 0 0 0 0 0 0 0 0 0 0 0 0 0 0 0 0 0 0 
0 0 0 0 0 0 0 0 0 0 0 0 0 0 0 0 0 0 0 0 0 0 0 0 0 0 0 0 0 0 0 0 0 0 0 0 0 0 0 0 
0 0 0 0 0 0 0 0 0 0 0 0 0 0 0 0 0 0 0 0 0 0 0 0 0 0 0 0 0 0 0 0 0 0 0 0 0 0 0 0 
0 0 0 0 0 0 0 0 0 0 0 0 0 0 0 0 0 0 0 0 0 0 0 0 0 0 0 0 0 0 0 0 0 0 0 0 0 0 0 0 
0 0 0 0 0 0 0 0 0 0 0 0 0 0 0 0 0 0 0 0 0 0 0 0 0 0 0 0 0 0 0 0 0 0 0 0 0 0 0 0 
0 0 0 0 0 0 0 0 0 0 0 0 0 0 0 0 0 0 0 0 0 0 0 0 0 0 0 0 0 0 0 0 0 0 0 0 0 0 0 0 
0 0 0 0 0 0 0 0 0 0 0 0 0 0 0 0 0 0 0 0 0 0 0 0 0 0 0 0 0 0 0 0 0 0 0 0 0 0 0 0 
0 0 0 0 0 0 0 0 0 0 0 0 0 0 0 0 0 0 0 0 0 0 0 0 0 0 0 0 0 0 0 0 0 0 0 0 0 0 0 0 
0 0 0 0 0 0 0 0 0 0 0 0 0 0 0 0 0 0 0 0 0 0 0 0 0 0 0 0 0 0 0 0 0 0 0 0 0 0 0 0 
0 0 0 0 0 0 0 117 201 247 247 201 117 0 0 0 0 0 0 0 0 0 0 0 0 117 201 247 247 201 117 0 0 0 0 0 0 0 0 0 
0 0 0 0 0 0 166 255 255 255 255 255 255 166 0 0 0 0 0 0 0 0 0 0 166 255 255 255 255 255 255 166 0 0 0 0 0 0 0 0 
0 0 0 0 0 132 255 255 255 255 255 255 255 255 132 0 0 0 0 0 0 0 0 132 255 255 255 255 255 255 255 255 132 0 0 0 0 0 0 0 
0 0 0 0 0 219 255 255 255 255 255 255 255 255 219 0 0 0 0 0 0 0 0 219 255 255 255 255 255 255 255 255 219 0 0 0 0 0 0 0 
0 0 0 0 0 254 255 255 255 255 255 255 255 255 254 0 0 0 0 0 0 0 0 254 255 255 255 255 255 255 255 255 254 0 0 0 0 0 0 0 
0 0 0 0 0 219 255 255 255 255 255 255 255 255 219 0 0 0 0 0 0 0 0 219 255 255 255 255 255 255 255 255 219 0 0 0 0 0 0 0 
0 0 0 0 0 132 255 255 255 255 255 255 255 255 132 0 0 0 0 0 0 0 0 132 255 255 255 255 255 255 255 255 132 0 0 0 0 0 0 0 
0 0 0 0 0 0 166 255 255 255 255 255 255 166 0 0 0 0 0 0 0 0 0 0 166 255 255 255 255 255 255 166 0 0 0 0 0 0 0 0 
0 0 0 0 0 0 0 117 201 247 247 201 117 0 0 0 0 0 0 0 0 0 0 0 0 117 201 247 247 201 117 0 0 0 0 0 0 0 0 0 
0 0 0 0 0 0 0 0 0 0 0 0 0 0 0 0 0 0 0 0 0 0 0 0 0 0 0 0 0 0 0 0 0 0 0 0 0 0 0 0 
0 0 0 0 0 0 0 0 0 0 0 0 0 0 0 0 0 0 0 0 0 0 0 0 0 0 0 0 0 0 0 0 0 0 0 0 0 0 0 0 
0 0 0 0 0 0 0 0 0 0 0 0 0 0 0 0 0 0 0 0 0 0 0 0 0 0 0 0 0 0 0 0 0 0 0 0 0 0 0 0 
0 0 0 0 0 0 0 0 0 0 0 0 0 0 0 0 0 0 0 0 0 0 0 0 0 0 0 0 0 0 0 0 0 0 0 0 0 0 0 0 
0 0 0 0 0 0 0 0 0 0 0 0 0 0 0 0 0 0 0 0 0 0 0 0 0 0 0 0 0 0 0 0 0 0 0 0 0 0 0 0 
